<?xml version="1.0" encoding="utf-8"?>
<!-- Generator: Adobe Illustrator 21.0.2, SVG Export Plug-In . SVG Version: 6.00 Build 0)  -->
<svg version="1.1" id="Слой_1" xmlns="http://www.w3.org/2000/svg" xmlns:xlink="http://www.w3.org/1999/xlink" x="0px" y="0px"
	 viewBox="0 0 61 61" style="enable-background:new 0 0 61 61;" xml:space="preserve">
<style type="text/css">
	.st0{fill:none;stroke:#666D89;stroke-width:2;}
	.st1{fill:#666D89;}
</style>
<g id="Services">
	<g id="Bulb">
		<path id="Ellipse" class="st0" d="M30.5,1C46.8,1,60,14.2,60,30.5S46.8,60,30.5,60S1,46.8,1,30.5S14.2,1,30.5,1z"/>
	</g>
</g>
<g id="Services_1_">
	<g id="Bubble">
		<path id="bubble" class="st1" d="M30.5,21.5c-6,0-11,3.2-11,7c0,0.3,0.2,0.5,0.5,0.5s0.5-0.2,0.5-0.5c0-3.2,4.7-6,10-6
			c0.3,0,0.5-0.2,0.5-0.5S30.8,21.5,30.5,21.5z M30.5,16.5c-8.8,0-16,5.4-16,12c0,4.1,2.8,7.8,7,9.9c0,0,0,0,0,0.1
			c0,1.8-1.3,3.7-1.9,4.7l0,0c0,0.1-0.1,0.2-0.1,0.4c0,0.5,0.4,0.9,0.9,0.9c0.1,0,0.3,0,0.3,0c3.1-0.5,6.1-3.4,6.8-4.2
			c1,0.1,2,0.2,3.1,0.2c8.8,0,16-5.4,16-12S39.3,16.5,30.5,16.5z M30.5,38.5c-0.9,0-1.9-0.1-2.8-0.2c-0.1,0-0.2,0-0.3,0
			c-0.6,0-1.2,0.3-1.5,0.7c-0.4,0.5-1.6,1.7-3.1,2.5c0.4-0.9,0.7-1.9,0.7-2.9c0-0.1,0-0.1,0-0.2c0-0.8-0.4-1.4-1.1-1.8
			c-3.7-1.9-5.9-4.9-5.9-8.1c0-5.5,6.3-10,14-10s14,4.5,14,10S38.2,38.5,30.5,38.5z"/>
	</g>
</g>
</svg>
