<?xml version="1.0" encoding="utf-8"?>
<!-- Generator: Adobe Illustrator 21.0.2, SVG Export Plug-In . SVG Version: 6.00 Build 0)  -->
<svg version="1.1" id="Слой_1" xmlns="http://www.w3.org/2000/svg" xmlns:xlink="http://www.w3.org/1999/xlink" x="0px" y="0px"
	 viewBox="0 0 61 61" style="enable-background:new 0 0 61 61;" xml:space="preserve">
<style type="text/css">
	.st0{fill:none;stroke:#666D89;stroke-width:2;}
	.st1{fill:#666D89;}
</style>
<g id="Services">
	<g id="Bulb">
		<path id="Ellipse" class="st0" d="M30.5,1C46.8,1,60,14.2,60,30.5S46.8,60,30.5,60S1,46.8,1,30.5S14.2,1,30.5,1z"/>
	</g>
</g>
<g id="Services_1_">
	<g id="Bulb_1_">
		<path id="bulb" class="st1" d="M30.5,14.5c-6.1,0-11,4.9-11,11c0,4,3.7,8.3,5,12c2,5.6,1.8,9,6,9c4.3,0,4-3.3,6-8.9
			c1.3-3.8,5-8.1,5-12.1C41.5,19.4,36.5,14.5,30.5,14.5z M33.1,41.7l-5,0.6c-0.2-0.5-0.4-1.1-0.6-1.9l0,0l6.2-0.8
			c-0.1,0.3-0.2,0.6-0.3,0.9C33.3,40.9,33.2,41.3,33.1,41.7z M27.2,39.4c-0.2-0.6-0.4-1.2-0.6-1.9h7.8c-0.1,0.4-0.3,0.7-0.3,1.1
			L27.2,39.4z M30.5,44.5c-1,0-1.5-0.1-2-1.3l4.2-0.5C32.1,44.4,31.6,44.5,30.5,44.5z M35.1,35.5h-9.3c-0.5-1.1-1.1-2.2-1.7-3.2
			c-1.3-2.3-2.6-4.8-2.6-6.8c0-5,4-9,9-9s9,4,9,9c0,2-1.3,4.5-2.7,6.8C36.2,33.3,35.6,34.4,35.1,35.5z M30.5,19.5c-3.3,0-6,2.7-6,6
			c0,0.3,0.2,0.5,0.5,0.5s0.5-0.2,0.5-0.5c0-2.8,2.2-5,5-5c0.3,0,0.5-0.2,0.5-0.5S30.7,19.5,30.5,19.5z"/>
	</g>
</g>
</svg>
