<svg xmlns="http://www.w3.org/2000/svg" viewBox="0 0 180 177" width="180" height="177">
	<defs>
		<clipPath clipPathUnits="userSpaceOnUse" id="cp1">
			<path d="M0 0L179 0L179 176L0 176Z" />
		</clipPath>
	</defs>
	<style>
		tspan { white-space:pre }
		.shp0 { fill: #666d89 } 
	</style>
	<g id="Page 1" clip-path="url(#cp1)">
		<path id="Path 1" fill-rule="evenodd" class="shp0" d="M179.22 68.82L179.22 87.82L149.22 87.82L149.22 117.82L130.22 117.82L130.22 87.82L100.22 87.82L100.22 68.82L130.22 68.82L130.22 38.82L149.22 38.82L149.22 68.82L179.22 68.82ZM56.01 0L102 0L102 1C102 6.15 92.77 7.13 86.46 7.99C84.34 8.28 80.05 8.73 78.83 9.36C90.47 15.56 92.36 25.34 92.36 39.92C92.36 56.5 85.87 65.27 78.98 71.43C74.73 75.24 71.36 78.25 71.36 82.25C71.36 86.18 75.97 90.22 81.3 94.89C90.03 102.57 102 113.07 102 130.72C102 148.99 94.14 162.06 78.66 169.57C66.73 175.37 53.88 176 48.91 176C47.96 176 47.41 175.98 47.32 175.98C47.32 175.98 46.97 175.99 46.36 175.99C38.62 175.99 0 174.2 0 139.03C0 104.47 42.05 101.78 54.94 101.78L55.27 101.78C47.83 91.85 49.37 81.82 49.37 81.82C48.71 81.86 47.77 81.9 46.59 81.9C41.73 81.9 32.38 81.13 24.33 75.94C14.5 69.61 9.51 58.82 9.51 43.89C9.51 1.72 55.55 0.01 56.01 0ZM54.43 110.79C53.4 110.79 52.37 110.83 51.33 110.89C42.53 111.54 34.44 114.83 28.55 120.17C22.74 125.44 19.77 132.06 20.19 138.8C21.07 152.85 36.18 161.11 54.53 159.77C72.59 158.46 84.62 148.08 83.74 134.01C82.91 120.77 71.41 110.79 54.43 110.79ZM47.23 12.47C45.93 12.47 44.63 12.65 43.38 13C38.18 14.47 34.05 18.81 31.75 25.25C29.41 31.8 29.25 38.6 31.28 46.39C34.93 60.25 44.79 70.31 54.73 70.31C56.04 70.31 57.33 70.13 58.58 69.78C69.43 66.72 76.25 50.13 71.73 34.26C66.95 17.45 59.23 12.47 47.23 12.47Z" />
	</g>
</svg>