<?xml version="1.0" encoding="utf-8"?>
<!-- Generator: Adobe Illustrator 21.0.2, SVG Export Plug-In . SVG Version: 6.00 Build 0)  -->
<svg version="1.1" id="Слой_1" xmlns="http://www.w3.org/2000/svg" xmlns:xlink="http://www.w3.org/1999/xlink" x="0px" y="0px"
	 viewBox="0 0 61 61" style="enable-background:new 0 0 61 61;" xml:space="preserve">
<style type="text/css">
	.st0{fill:none;stroke:#666D89;stroke-width:2;}
	.st1{fill:#666D89;}
</style>
<g id="Services">
	<g id="Bulb">
		<path id="Ellipse" class="st0" d="M30.5,1C46.8,1,60,14.2,60,30.5S46.8,60,30.5,60S1,46.8,1,30.5S14.2,1,30.5,1z"/>
	</g>
</g>
<g id="Services_1_">
	<g id="Heart">
		<path id="heart" class="st1" d="M43.7,19.3c-3.6-3.6-9.4-3.7-13.2-0.3c-3.8-3.4-9.6-3.3-13.2,0.3c-3.7,3.7-3.7,9.7,0,13.4
			c1.1,1.1,11,10.9,11,10.9c1.2,1.2,3.1,1.2,4.3,0c0,0,10.9-10.8,11-10.9C47.4,29,47.4,23,43.7,19.3z M42.3,31.3L31.2,42.2
			c-0.4,0.4-1,0.4-1.4,0L18.7,31.3c-3-2.9-3-7.7,0-10.6c2.8-2.8,7.4-2.9,10.4-0.2l1.4,1.2l1.4-1.2c3-2.7,7.6-2.6,10.4,0.2
			C45.2,23.6,45.2,28.3,42.3,31.3z M23.8,21.5L23.8,21.5c-2.4,0-4.3,1.9-4.3,4.2l0,0c0,0.3,0.2,0.5,0.5,0.5c0.3,0,0.5-0.2,0.5-0.5
			l0,0c0-1.8,1.5-3.2,3.3-3.2l0,0c0.3,0,0.5-0.2,0.5-0.5C24.3,21.7,24,21.5,23.8,21.5z"/>
	</g>
</g>
</svg>
