<svg xmlns="http://www.w3.org/2000/svg" viewBox="0 0 180 178" width="180" height="178">
	<defs>
		<clipPath clipPathUnits="userSpaceOnUse" id="cp1">
			<path d="M0 1L180 1L180 178L0 178Z" />
		</clipPath>
	</defs>
	<style>
		tspan { white-space:pre }
		.shp0 { fill: #666d89 } 
	</style>
	<g id="Page 1" clip-path="url(#cp1)">
		<path id="Path 1" class="shp0" d="M1.01 54.2L39.5 54.2L39.5 178L1.01 178L1.01 54.2ZM40.76 19.77C40.76 30.4 32.91 39.01 20 39.01C7.85 39.01 0 30.4 0 19.77C0 8.88 8.1 0.52 20.5 0.52C32.91 0.52 40.51 8.88 40.76 19.77ZM62.52 93.69C62.52 78.25 62.02 65.34 61.52 54.2L94.93 54.2L96.71 71.41L97.47 71.41C102.53 63.31 114.93 51.41 135.7 51.41C161.01 51.41 180 68.38 180 104.83L180 178L141.52 178L141.52 109.39C141.52 93.44 135.95 82.56 122.02 82.56C111.39 82.56 105.06 89.9 102.28 96.98C101.26 99.51 101.01 103.06 101.01 106.61L101.01 178L62.52 178L62.52 93.69Z" />
	</g>
</svg>