<svg xmlns="http://www.w3.org/2000/svg" viewBox="0 0 100 161" width="7" height="11">
	<defs>
		<clipPath clipPathUnits="userSpaceOnUse" id="cp1">
			<path d="M0 0L100 0L100 160L0 160Z" />
		</clipPath>
	</defs>
	<style>
		tspan { white-space:pre }
		.shp0 { fill: #f0d8d9 } 
	</style>
	<g id="Page 1" clip-path="url(#cp1)">
		<path id="Path 1" fill-rule="evenodd" class="shp0" d="M100 50C100 97.74 50 160 50 160C50 160 0 97.74 0 50C0 22.39 22.38 0 50 0C77.61 0 100 22.39 100 50ZM77 50.6C77 35.69 64.91 23.6 50 23.6C35.09 23.6 23 35.69 23 50.6C23 65.51 35.09 77.6 50 77.6C64.91 77.6 77 65.51 77 50.6Z" />
	</g>
</svg>