<svg xmlns="http://www.w3.org/2000/svg" viewBox="0 0 181 117" width="13" height="8">
	<defs>
		<clipPath clipPathUnits="userSpaceOnUse" id="cp1">
			<path d="M0 0L180 0L180 116L0 116Z" />
		</clipPath>
	</defs>
	<style>
		tspan { white-space:pre }
		.shp0 { fill: #f0d8d9 } 
	</style>
	<g id="Page 1" clip-path="url(#cp1)">
		<path id="Path 1" class="shp0" d="M176.13 30.86C170.58 33.75 102.46 69.37 99.06 71.14C95.66 72.92 93.28 73.15 90 73.15C86.71 73.15 84.34 72.92 80.94 71.14C77.54 69.37 9.42 33.75 3.87 30.86C-0.03 28.82 0 31.21 0 33.05L0 106.41C0 110.6 5.58 116 9.92 116L170.08 116C174.42 116 180 110.6 180 106.41L180 33.05C180 31.21 180.04 28.82 176.13 30.86ZM5.94 10.86C10.82 13.48 78.42 49.79 80.94 51.14C83.45 52.5 86.71 53.15 90 53.15C93.28 53.15 96.54 52.5 99.06 51.14C101.58 49.79 169.18 13.48 174.06 10.86C178.94 8.23 183.57 0 174.59 0L5.4 0C-3.56 0 1.05 8.23 5.94 10.86Z" />
	</g>
</svg>