<?xml version="1.0" encoding="utf-8"?>
<!-- Generator: Adobe Illustrator 21.0.2, SVG Export Plug-In . SVG Version: 6.00 Build 0)  -->
<svg version="1.1" id="Слой_1" xmlns="http://www.w3.org/2000/svg" xmlns:xlink="http://www.w3.org/1999/xlink" x="0px" y="0px"
	 viewBox="0 0 61 61" style="enable-background:new 0 0 61 61;" xml:space="preserve">
<style type="text/css">
	.st0{fill:none;stroke:#666D89;stroke-width:2;}
	.st1{fill:#666D89;}
</style>
<g id="Services">
	<g id="Bulb">
		<path id="Ellipse" class="st0" d="M30.5,1C46.8,1,60,14.2,60,30.5S46.8,60,30.5,60S1,46.8,1,30.5S14.2,1,30.5,1z"/>
	</g>
</g>
<g id="Services_1_">
	<g id="Phone">
		<path id="phone" class="st1" d="M38.5,14.5h-16c-1.7,0-3,1.3-3,3v26c0,1.7,1.3,3,3,3h16c1.7,0,3-1.3,3-3v-26
			C41.5,15.8,40.2,14.5,38.5,14.5z M39.5,43.5c0,0.5-0.5,1-1,1h-16c-0.5,0-1-0.5-1-1v-2h18V43.5z M39.5,40.5h-18v-20h18V40.5z
			 M39.5,19.5h-18v-2c0-0.5,0.5-1,1-1h16c0.5,0,1,0.5,1,1V19.5z M32.5,18c0,0.3-0.2,0.5-0.5,0.5h-3c-0.3,0-0.5-0.2-0.5-0.5l0,0
			c0-0.3,0.2-0.5,0.5-0.5h3C32.3,17.5,32.5,17.7,32.5,18L32.5,18z M31.5,43c0,0.3-0.2,0.5-0.5,0.5h-1c-0.3,0-0.5-0.2-0.5-0.5l0,0
			c0-0.3,0.2-0.5,0.5-0.5h1C31.3,42.5,31.5,42.7,31.5,43L31.5,43z"/>
	</g>
</g>
</svg>
