<?xml version="1.0" encoding="utf-8"?>
<!-- Generator: Adobe Illustrator 21.0.2, SVG Export Plug-In . SVG Version: 6.00 Build 0)  -->
<svg version="1.1" id="Слой_1" xmlns="http://www.w3.org/2000/svg" xmlns:xlink="http://www.w3.org/1999/xlink" x="0px" y="0px"
	 viewBox="0 0 61 61" style="enable-background:new 0 0 61 61;" xml:space="preserve">
<style type="text/css">
	.st0{fill:none;stroke:#666D89;stroke-width:2;}
	.st1{fill:#666D89;}
</style>
<g id="Services">
	<g id="Bulb">
		<path id="Ellipse" class="st0" d="M30.5,1C46.8,1,60,14.2,60,30.5S46.8,60,30.5,60S1,46.8,1,30.5S14.2,1,30.5,1z"/>
	</g>
</g>
<g id="Services_2_">
	<g id="Star">
		<path id="star" class="st1" d="M46.4,25.7c-0.3-0.8-1-1.4-1.8-1.5l-8.3-1.2l-3.6-7.5c-0.4-0.8-1.2-1.3-2.1-1.3s-1.7,0.5-2.1,1.3
			l-3.6,7.5l-8.3,1.2c-0.8,0.1-1.6,0.7-1.8,1.5c-0.3,0.8-0.1,1.7,0.5,2.3l6.1,6.1l-1.4,8.5c-0.1,0.8,0.2,1.7,0.9,2.2
			c0.4,0.3,0.9,0.4,1.3,0.4c0.4,0,0.8-0.1,1.1-0.3l7.3-3.9l7.3,3.9c0.4,0.2,0.7,0.3,1.1,0.3c0.5,0,0.9-0.1,1.3-0.4
			c0.7-0.5,1.1-1.4,1-2.2l-1.4-8.5l6.1-6.1C46.5,27.4,46.7,26.5,46.4,25.7z M38.1,32.5c-0.5,0.5-0.8,1.2-0.6,1.9l1.4,8.5L31.6,39
			c-0.4-0.2-0.7-0.3-1.1-0.3s-0.8,0.1-1.1,0.3l-7.3,3.9l1.4-8.5c0.1-0.7-0.1-1.4-0.6-1.9l-6.1-6.1l8.3-1.2c0.8-0.1,1.4-0.6,1.7-1.3
			l3.6-7.5l3.6,7.5c0.3,0.7,1,1.2,1.7,1.3l8.3,1.2L38.1,32.5z"/>
	</g>
</g>
</svg>
