<svg xmlns="http://www.w3.org/2000/svg" viewBox="0 0 160 160" width="11" height="11">
	<defs>
		<clipPath clipPathUnits="userSpaceOnUse" id="cp1">
			<path d="M0 0L160 0L160 160L0 160Z" />
		</clipPath>
	</defs>
	<style>
		tspan { white-space:pre }
		.shp0 { fill: #f0d8d9 } 
	</style>
	<g id="Page 1" clip-path="url(#cp1)">
		<path id="Path 1" class="shp0" d="M92.28 92.28C76.45 108.12 58.11 123.25 50.87 116.01C40.49 105.63 34.09 96.59 11.22 114.98C-11.66 133.37 5.91 145.62 15.96 155.68C27.56 167.28 70.81 156.29 113.55 113.55C156.28 70.81 167.28 27.57 155.67 15.96C145.62 5.91 133.36 -11.66 114.98 11.22C96.59 34.09 105.63 40.49 116.01 50.87C123.25 58.11 108.12 76.45 92.28 92.28Z" />
	</g>
</svg>