<svg xmlns="http://www.w3.org/2000/svg" viewBox="0 0 184 150" width="184" height="150">
	<defs>
		<clipPath clipPathUnits="userSpaceOnUse" id="cp1">
			<path d="M0 0L184 0L184 150L0 150Z" />
		</clipPath>
	</defs>
	<style>
		tspan { white-space:pre }
		.shp0 { fill: #666d89 } 
	</style>
	<g id="Page 1" clip-path="url(#cp1)">
		<path id="Path 1" class="shp0" d="M184 18.16C177.23 21.17 169.95 23.2 162.32 24.11C170.11 19.44 176.1 12.04 178.92 3.22C171.62 7.55 163.54 10.69 154.95 12.38C148.06 5.05 138.25 0.46 127.39 0.46C106.54 0.46 89.64 17.37 89.64 38.21C89.64 41.17 89.97 44.05 90.62 46.81C59.25 45.24 31.42 30.21 12.81 7.37C9.56 12.95 7.7 19.43 7.7 26.35C7.7 39.45 14.36 51 24.49 57.77C18.3 57.58 12.48 55.88 7.39 53.05C7.39 53.21 7.39 53.37 7.39 53.53C7.39 71.82 20.4 87.07 37.67 90.54C34.5 91.4 31.17 91.87 27.72 91.87C25.29 91.87 22.93 91.63 20.62 91.19C25.43 106.19 39.37 117.1 55.89 117.4C42.96 127.53 26.69 133.57 9 133.57C5.96 133.57 2.95 133.39 0 133.03C16.7 143.75 36.54 150 57.87 150C127.3 150 165.27 92.47 165.27 42.59C165.27 40.96 165.24 39.33 165.16 37.7C172.54 32.38 178.94 25.74 184 18.16Z" />
	</g>
</svg>