<svg xmlns="http://www.w3.org/2000/svg" viewBox="0 0 62 61" width="62" height="61">
	<style>
		tspan { white-space:pre }
		.shp0 { fill: #666d89 } 
		.shp1 { fill: none;stroke: #666d89;stroke-width: 2 } 
	</style>
	<g id="Services">
		<g id="Pen">
			<path id="pen" class="shp0" d="M44.4 16.58C42.75 14.94 40.59 14 38.45 14C36.65 14 34.99 14.67 33.78 15.88L28.91 20.78C28.9 20.79 28.88 20.8 28.87 20.82C28.86 20.83 28.85 20.84 28.85 20.85L28.85 20.85L18.52 31.26C18.04 31.73 17.7 32.32 17.5 32.96L15.16 41.47C15.15 41.49 15 42.16 15 42.5C15 44.43 16.57 46 18.5 46C18.89 46 19.63 45.82 19.66 45.81L28.14 43.58C28.78 43.39 29.37 43.04 29.84 42.57L45.11 27.19C47.88 24.41 47.57 19.75 44.4 16.58ZM31.01 37.8C30.93 36.89 30.68 36.01 30.3 35.17L39.75 25.71C40.33 27.54 40.03 29.45 38.76 30.72C38.76 30.73 38.75 30.73 38.74 30.74L38.75 30.75L31.02 38.54C31.03 38.29 31.04 38.05 31.01 37.8ZM29.79 34.26C29.42 33.64 29 33.05 28.47 32.53C27.86 31.92 27.16 31.44 26.43 31.04L35.96 21.5C36.71 21.84 37.42 22.31 38.06 22.94C38.6 23.48 39.02 24.08 39.34 24.71L29.79 34.26ZM25.49 30.56C24.56 30.19 23.59 29.98 22.62 29.96L30.32 22.2C31.5 21.05 33.22 20.72 34.91 21.14L25.49 30.56ZM19.17 43.87C19.06 43.9 18.72 43.98 18.49 44C17.67 43.99 17 43.32 17 42.5C17.01 42.33 17.08 42.04 17.1 41.94L18.15 38.12C19.3 38.09 20.53 38.54 21.49 39.51C22.48 40.49 22.94 41.74 22.89 42.9L19.17 43.87ZM23.87 42.64C23.85 41.3 23.3 39.9 22.2 38.8C21.16 37.76 19.8 37.15 18.44 37.1L19.43 33.49C19.5 33.25 19.65 33.02 19.82 32.81C21.83 31.37 24.91 31.8 27.06 33.94C29.32 36.21 29.67 39.53 27.93 41.51C27.81 41.57 27.7 41.63 27.57 41.67L23.87 42.64ZM43.69 25.77L42.01 27.47C42.01 27.24 42.04 27.03 42.01 26.8C41.84 24.86 40.94 22.99 39.47 21.53C37.84 19.9 35.68 18.96 33.54 18.96L35.2 17.29C36.03 16.46 37.18 16 38.45 16C40.06 16 41.71 16.73 42.98 18C44.18 19.19 44.89 20.67 44.99 22.16C45.08 23.56 44.62 24.84 43.69 25.77Z" />
			<path id="Ellipse" class="shp1" d="M30.5 1C46.79 1 60 14.21 60 30.5C60 46.79 46.79 60 30.5 60C14.21 60 1 46.79 1 30.5C1 14.21 14.21 1 30.5 1Z" />
		</g>
	</g>
</svg>